#!OML:ASF I:\Actors\actors\Patient Classification 1\Patient 1\Session 1\Subject1.ASF
:FULLY-SPECIFIED
:DEGREES
442
root -0.353777 17.5246 9.13332 10.7576 0.82011 -9.3614
lowerback 4.39649 0.789287 9.66972
upperback -7.20037 2.09462 1.36113
thorax -9.95391 0.35099 -4.21008
lowerneck -19.6094 -3.91235 -3.13409
upperneck 25.4894 -6.99323 8.17788
head 12.0789 -2.38004 2.46184
rclavicle -1.11071e-014 3.1408e-014
rhumerus 45.4945 41.9062 -60.6607
rradius 52.1822
rwrist -46.1009
rhand -14.5532 -53.3324
rfingers 7.12502
rthumb 11.5957 -442.992
lclavicle -1.11071e-014 3.1408e-014
lhumerus 48.1266 -40.9394 43.2988
lradius 51.401
lwrist 63.2201
lhand -63.3373 -36.0765
lfingers 7.12502
lthumb -35.3229 -9.59646
rfemur -10.6341 18.0744 29.165
rtibia 9.4015
rfoot -11.8673 -20.1577
rtoes 4.33031
lfemur -1.36531 -38.4935 -3.29143
ltibia -2.5593
lfoot -17.9704 46.9049
ltoes 2.61994
443
root -0.352282 17.5246 9.13789 10.7965 0.791363 -9.4501
lowerback 4.18257 0.771028 9.50707
upperback -7.03106 2.03081 1.53632
thorax -9.65049 0.359915 -3.91693
lowerneck -19.7232 -3.87227 -3.17154
upperneck 25.3643 -6.89443 8.12794
head 12.0446 -2.34615 2.4623
rclavicle 2.07295e-014 5.96354e-016
rhumerus 45.0863 42.1685 -61.1054
rradius 51.9743
rwrist -45.9572
rhand -14.5004 -53.238
rfingers 7.12502
rthumb 11.6466 -442.894
lclavicle 2.07295e-014 5.96354e-016
lhumerus 47.574 -41.0543 43.8279
lradius 51.367
lwrist 63.1523
lhand -63.0063 -36.2551
lfingers 7.12502
lthumb -35.0089 -9.70117
rfemur -10.6797 18.1014 29.2517
rtibia 9.43241
rfoot -11.8642 -20.1596
rtoes 4.40286
lfemur -1.38804 -38.4012 -3.16727
ltibia -2.56833
lfoot -17.9772 46.8676
ltoes 2.58445
444
root -0.351179 17.5243 9.14353 10.8329 0.754811 -9.47101
lowerback 4.66147 0.793374 9.92582
upperback -7.34466 2.15529 1.20961
thorax -10.2616 0.333383 -4.53212
lowerneck -19.6079 -3.94444 -3.02684
upperneck 25.6096 -7.13507 8.33367
head 12.1404 -2.40954 2.48122
rclavicle -1.963e-015 5.96354e-015
rhumerus 43.3006 42.2608 -62.9456
rradius 51.8198
rwrist -45.7591
rhand -14.4684 -53.2164
rfingers 7.12502
rthumb 11.6775 -442.871
lclavicle -1.963e-015 5.96354e-015
lhumerus 46.9236 -42.1033 43.8937
lradius 51.4601
lwrist 63.0956
lhand -62.4617 -36.1387
lfingers 7.12502
lthumb -34.4921 -9.46552
rfemur -10.6986 18.2334 29.2505
rtibia 9.42021
rfoot -11.9381 -20.2075
rtoes 5.00755
lfemur -1.40381 -38.3769 -3.1345
ltibia -2.55956
lfoot -18.0813 46.8628
ltoes 2.721
445
root -0.349953 17.5249 9.14915 10.8714 0.740381 -9.43792
lowerback 4.09119 0.768856 9.53261
upperback -6.98089 2.00711 1.44242
thorax -9.53904 0.349097 -4.0269
lowerneck -19.7415 -3.92238 -3.10251
upperneck 25.2964 -7.00736 8.20697
head 12.0315 -2.38098 2.46005
rclavicle -6.21823e-015 1.74931e-014
rhumerus 43.3508 42.5115 -62.8579
rradius 51.842
rwrist -45.692
rhand -14.4262 -53.2816
rfingers 7.12502
rthumb 11.7181 -442.934
lclavicle -6.21823e-015 1.74931e-014
lhumerus 46.4777 -41.9118 44.5517
lradius 51.3602
lwrist 62.7344
lhand -62.2634 -36.2933
lfingers 7.12502
lthumb -34.3038 -9.57754
rfemur -10.7281 18.2947 29.1876
rtibia 9.42071
rfoot -11.9954 -20.2047
rtoes 5.40693
lfemur -1.44922 -38.3708 -3.15779
ltibia -2.5288
lfoot -18.1107 46.8698
ltoes 2.84175
446
root -0.348518 17.5254 9.15495 10.8988 0.749605 -9.43563
lowerback 4.12044 0.75845 9.59579
upperback -7.01558 1.99908 1.37336
thorax -9.59407 0.333777 -4.13634
lowerneck -19.5512 -3.94113 -3.04571
upperneck 25.203 -7.05459 8.23408
head 11.9596 -2.40082 2.45298
rclavicle -2.60905e-016 3.57812e-015
rhumerus 42.3377 42.6816 -63.8447
rradius 51.7774
rwrist -45.3971
rhand -14.3758 -53.2316
rfingers 7.12502
rthumb 11.7667 -442.881
lclavicle -2.60905e-016 3.57812e-015
lhumerus 45.7982 -42.3841 45.027
lradius 51.3846
lwrist 62.4487
lhand -62.1987 -36.0789
lfingers 7.12502
lthumb -34.2424 -9.34929
rfemur -10.7537 18.2969 29.1765
rtibia 9.45181
rfoot -12.0235 -20.1887
rtoes 5.46342
lfemur -1.45856 -38.4262 -3.15886
ltibia -2.54013
lfoot -18.1045 46.9371
ltoes 2.88637
447
root -0.34719 17.5246 9.16134 10.9197 0.738281 -9.49318
lowerback 4.52166 0.776491 10.0274
upperback -7.28924 2.10951 1.08942
thorax -10.1164 0.306868 -4.70887
lowerneck -19.3288 -3.96302 -2.79995
upperneck 25.3771 -7.20085 8.28175
head 11.9871 -2.43762 2.41055
rclavicle 1.03989e-014 7.95139e-015
rhumerus 40.7435 42.7791 -65.3711
rradius 51.7198
rwrist -45.1478
rhand -14.4175 -53.0598
rfingers 7.12502
rthumb 11.7265 -442.712
lclavicle 1.03989e-014 7.95139e-015
lhumerus 45.026 -43.3022 45.2891
lradius 51.5002
lwrist 62.3384
lhand -62.0743 -35.7439
lfingers 7.12502
lthumb -34.1242 -8.98776
rfemur -10.7724 18.2689 29.243
rtibia 9.49924
rfoot -12.0341 -20.1453
rtoes 5.36167
lfemur -1.45074 -38.3331 -3.09027
ltibia -2.56306
lfoot -18.0311 46.8892
ltoes 2.67251
448
root -0.34565 17.5235 9.16783 10.9404 0.696169 -9.5243
lowerback 3.90012 0.751932 9.61587
upperback -6.86249 1.95662 1.41354
thorax -9.29751 0.332385 -4.09312
lowerneck -19.6373 -3.87565 -2.82068
upperneck 25.1832 -6.95804 7.98779
head 11.9424 -2.36566 2.33673
rclavicle 1.17718e-014 -5.92378e-014
rhumerus 41.1827 43.1653 -64.7588
rradius 51.7812
rwrist -45.256
rhand -14.5249 -52.9487
rfingers 7.12502
rthumb 11.6229 -442.606
lclavicle 1.17718e-014 -5.92378e-014
lhumerus 44.5848 -42.9352 46.01
lradius 51.402
lwrist 62.1524
lhand -62.1263 -36.0639
lfingers 7.12502
lthumb -34.1737 -9.31883
rfemur -10.7918 18.2226 29.2763
rtibia 9.54292
rfoot -12.0144 -20.0869
rtoes 5.16807
lfemur -1.45927 -38.1513 -3.06968
ltibia -2.51587
lfoot -17.9985 46.7587
ltoes 2.53165
449
root -0.344084 17.5227 9.17447 10.9602 0.668346 -9.48335
lowerback 3.9408 0.74131 9.6208
upperback -6.87994 1.94421 1.35497
thorax -9.3412 0.320741 -4.15857
lowerneck -19.7385 -3.88735 -2.84935
upperneck 25.3222 -7.0043 8.07483
head 12.0255 -2.37155 2.36809
rclavicle -2.77802e-014 3.57812e-015
rhumerus 40.3888 43.3964 -65.4854
rradius 51.6843
rwrist -45.2046
rhand -14.5435 -52.8502
rfingers 7.12502
rthumb 11.605 -442.509
lclavicle -2.77802e-014 3.57812e-015
lhumerus 44.0161 -43.3831 46.3169
lradius 51.4217
lwrist 62.1174
lhand -62.2847 -36.5615
lfingers 7.12502
lthumb -34.324 -9.85022
rfemur -10.7984 18.17 29.2211
rtibia 9.54725
rfoot -11.973 -20.0492
rtoes 5.04952
lfemur -1.46571 -38.111 -3.15195
ltibia -2.45052
lfoot -18.0358 46.7388
ltoes 2.63657
450
root -0.343461 17.5222 9.18049 10.9764 0.692289 -9.44735
lowerback 3.94277 0.728393 9.54454
upperback -6.88909 1.92087 1.35087
thorax -9.35625 0.313639 -4.11813
lowerneck -19.7647 -3.89205 -2.90809
upperneck 25.3757 -7.02254 8.16118
head 12.0593 -2.37214 2.40837
rclavicle -1.85739e-015 -5.1684e-015
rhumerus 39.6256 43.6504 -66.1017
rradius 51.5448
rwrist -45.1865
rhand -14.5358 -52.6952
rfingers 7.12502
rthumb 11.6125 -442.353
lclavicle -1.85739e-015 -5.1684e-015
lhumerus 43.4103 -43.8053 46.7785
lradius 51.4107
lwrist 62.0465
lhand -62.3357 -37.0427
lfingers 7.12502
lthumb -34.3725 -10.3424
rfemur -10.7902 18.1013 29.1757
rtibia 9.51946
rfoot -11.9511 -20.0262
rtoes 5.03132
lfemur -1.50548 -38.0714 -3.18707
ltibia -2.41278
lfoot -17.9306 46.7101
ltoes 2.53203
451
root -0.342471 17.5213 9.18647 10.9946 0.743747 -9.47157
lowerback 4.24267 0.760449 9.75881
upperback -7.12401 2.02428 1.19243
thorax -9.77904 0.313286 -4.42886
lowerneck -19.5958 -3.96241 -2.8786
upperneck 25.535 -7.18006 8.25734
head 12.1027 -2.42745 2.41812
rclavicle -2.01021e-014 -3.97569e-015
rhumerus 38.171 43.7956 -67.3161
rradius 51.5055
rwrist -45.2688
rhand -14.8709 -52.8439
rfingers 7.12502
rthumb 11.2892 -442.52
lclavicle -2.01021e-014 -3.97569e-015
lhumerus 42.6803 -44.6871 47.2241
lradius 51.4505
lwrist 61.9103
lhand -62.2909 -37.4415
lfingers 7.12502
lthumb -34.3299 -10.7316
rfemur -10.7941 18.039 29.2046
rtibia 9.52363
rfoot -11.9807 -20.0058
rtoes 4.94247
lfemur -1.52969 -38.0924 -3.14524
ltibia -2.41205
lfoot -17.875 46.708
ltoes 2.4361
452
root -0.340758 17.5209 9.19308 11.0182 0.745259 -9.50959
lowerback 3.6638 0.72431 9.56175
upperback -6.75782 1.87528 1.37909
thorax -9.05015 0.310158 -4.08498
lowerneck -19.8199 -3.89198 -2.86671
upperneck 25.3545 -7.02095 8.11961
head 12.0585 -2.37177 2.38491
rclavicle 9.23728e-015 -1.86858e-014
rhumerus 38.3629 44.124 -67.1229
rradius 51.5128
rwrist -45.5384
rhand -14.7091 -53.2693
rfingers 7.12502
rthumb 11.4453 -442.937
lclavicle 9.23728e-015 -1.86858e-014
lhumerus 42.2698 -44.5123 47.6752
lradius 51.4058
lwrist 61.6741
lhand -62.268 -36.7727
lfingers 7.12502
lthumb -34.3082 -10.0579
rfemur -10.8232 17.999 29.2448
rtibia 9.57903
rfoot -12.0051 -19.9713
rtoes 4.85876
lfemur -1.47655 -38.223 -3.13646
ltibia -2.45152
lfoot -17.9411 46.8385
ltoes 2.45887
453
root -0.339882 17.5226 9.19952 11.0304 0.695799 -9.53261
lowerback 3.71284 0.697456 9.52306
upperback -6.7794 1.84678 1.42128
thorax -9.10912 0.29717 -4.01643
lowerneck -19.8881 -3.85508 -2.84775
upperneck 25.4768 -6.97378 8.08029
head 12.1142 -2.349 2.37626
rclavicle -1.71452e-014 -2.90226e-014
rhumerus 37.5821 44.4215 -67.7676
rradius 51.3772
rwrist -45.2965
rhand -13.6206 -53.0503
rfingers 7.12502
rthumb 12.4949 -442.657
lclavicle -1.71452e-014 -2.90226e-014
lhumerus 41.3178 -44.8411 48.4094
lradius 51.4047
lwrist 61.512
lhand -62.2809 -35.4459
lfingers 7.12502
lthumb -34.3205 -8.73391
rfemur -10.8291 17.9803 29.2715
rtibia 9.61507
rfoot -11.9935 -19.9368
rtoes 4.76533
lfemur -1.38953 -38.321 -3.16672
ltibia -2.48909
lfoot -18.0933 46.9563
ltoes 2.58074
454
root -0.339687 17.5237 9.20587 11.0235 0.66344 -9.53827
lowerback 3.62274 0.681024 9.49561
upperback -6.69143 1.80659 1.44313
thorax -8.96365 0.289818 -3.97108
lowerneck -19.9617 -3.80829 -2.84665
upperneck 25.4016 -6.90545 8.10193
head 12.0959 -2.31557 2.39366
rclavicle 8.4732e-015 1.74931e-014
rhumerus 37.0024 44.6629 -68.2337
rradius 51.3055
rwrist -45.1044
rhand -13.1685 -52.6767
rfingers 7.12502
rthumb 12.9308 -442.256
lclavicle 8.4732e-015 1.74931e-014
lhumerus 40.6028 -45.0755 49.0028
lradius 51.3707
lwrist 61.4883
lhand -62.2544 -35.1227
lfingers 7.12502
lthumb -34.2953 -8.40495
rfemur -10.7882 17.9832 29.2879
rtibia 9.60053
rfoot -11.9853 -19.9302
rtoes 4.67577
lfemur -1.31803 -38.3422 -3.20853
ltibia -2.49846
lfoot -18.2024 46.9801
ltoes 2.64707
455
root -0.339312 17.5233 9.2122 11.0124 0.665393 -9.49779
lowerback 3.63287 0.673065 9.37016
upperback -6.65912 1.78829 1.49022
thorax -8.93807 0.293583 -3.8492
lowerneck -20.0221 -3.79924 -2.89944
upperneck 25.349 -6.8609 8.07549
head 12.0848 -2.30404 2.39853
rclavicle 8.13154e-015 -1.74931e-014
rhumerus 36.4024 44.9794 -68.5783
rradius 51.2924
rwrist -45.1477
rhand -13.2662 -52.6584
rfingers 7.12502
rthumb 12.8366 -442.244
lclavicle 8.13154e-015 -1.74931e-014
lhumerus 39.8378 -45.3776 49.7686
lradius 51.3063
lwrist 61.3857
lhand -62.3121 -35.9478
lfingers 7.12502
lthumb -34.35 -9.24247
rfemur -10.7377 17.9991 29.2504
rtibia 9.57416
rfoot -11.9965 -19.9544
rtoes 4.80035
lfemur -1.25799 -38.3623 -3.3015
ltibia -2.5093
lfoot -18.148 47.0095
ltoes 2.44742
